<svg id="Capa_1" data-name="Capa 1" xmlns="http://www.w3.org/2000/svg" viewBox="0 0 1752 1664"><title>LOGO DEFINITIVO WILLAY</title><rect x="353.28" y="165" width="1031.45" height="440.33" rx="220.17" ry="220.17" style="fill:#ed0000;stroke:#ed0000;stroke-miterlimit:10;stroke-width:32.7790214610628px"/><circle cx="1164.56" cy="385.17" r="220.17" style="fill:#fff;stroke:#ed0000;stroke-miterlimit:10;stroke-width:32.7790214610628px"/><circle cx="1164.56" cy="385.17" r="220.17" style="fill:none;stroke:#fff;stroke-miterlimit:10;stroke-width:6.7767657783179px"/><path d="M1100.34,298.49l18.89,113.33,26.44-102h41.55l22.67,102,22.66-109.55,58.55-3.78-47.21,207.77h-56.67l-18.88-75.55-22.67,75.55h-60.44l-47.22-204Z" style="fill:#ed0000"/><path d="M303.38,816l32.48,201.43,47.92-180.88,73.79.38,39.3,181.35,41.28-194.34,104-6.16-85.8,368.53-100.63-.53L422.9,1051.4l-41,134-107.34-.57-82-362.71Z" style="fill:#ed0000"/><path d="M699.15,824.76c28.17.15,46.86,19,46.71,47.21s-19,46.86-47.21,46.71-46.86-19-46.71-47.21S671,824.61,699.15,824.76Zm-48.87,362,8-234.77,87.24-6.25,5.44,241.55Z" style="fill:#ed0000"/><path d="M771,1187.41l8.62-362.23,87.24-6.25,4.77,369Z" style="fill:#ed0000"/><path d="M891.78,1188.05l8.62-362.23,87.25-6.25,4.76,369Z" style="fill:#ed0000"/><path d="M1189.76,1166.81c-15.51,14.68-37.69,22.61-61.17,22.49-67.08-.36-120.5-47.6-120.08-128.1.35-67.09,47.52-107.1,111.26-106.76,43.6.23,66.26,29.2,74.86,52l2.29-51.64,87.24-6.25,5.44,241.54-100.63-.53Zm2.39-71.77,1.62-51.65a61.65,61.65,0,0,0-40.85-15c-20.12-.1-43.66,9.84-43.82,40-.17,33.55,23.24,47.09,43.36,47.19C1167.22,1115.7,1182.7,1105.72,1192.15,1095Z" style="fill:#ed0000"/><path d="M1429.77,1325.06c-47-.25-67-13.77-67-13.77l7.2-93.89a104.51,104.51,0,0,0,36.19,6.9c30.86.16,36.35-24,37.21-59.51-10.82,17.38-28.35,32.72-53.17,32.59-60.38-.32-74.92-40.65-76.58-107.74l-2.69-127.48L1411.59,956s-3.85,93.9-4,127.44c-.16,30.19,9.85,40.31,23.27,40.38,4.7,0,10.08-2.63,14.12-6l6.89-161.64,87.25-6.25,5.58,214.71C1550.14,1272,1523.69,1325.55,1429.77,1325.06Z" style="fill:#ed0000"/><path d="M240.5,1492.54H205.9v-93.37h9.62v86h25Z"/><path d="M292,1492.54H283v-1.61q-5.46.66-10.93,1.25a108.22,108.22,0,0,1-10.87.72q-7.55,0-7.54-6.45v-21.18q0-6.68,7.82-6.68H283.1v-17.48H263.31v9.9h-8.93v-9.78q0-6.74,7.75-6.74h22.15q7.74,0,7.75,6.74Zm-8.93-7.22V1464.8H262.55v20.88Z"/><path d="M347.46,1421.78h-9.34v-10h9.34Zm-.14,70.76h-9.06v-58h9.06Z"/><path d="M403.07,1492.54h-9.21v-51l-20.27.47v50.48h-9.21v-58h9.21v1.61q5.4-.6,10.86-1.25a105.4,105.4,0,0,1,10.94-.72q7.68,0,7.68,6.5Z"/><path d="M444.84,1406.15h-13v28.34h11.49v7H431.82v51.07h-9.06v-51.07h-7.82v-7h7.82v-28.58q0-6.73,7.75-6.74h14.33Z"/><path d="M493.18,1485.8q0,6.73-7.82,6.74H462.24q-7.75,0-7.75-6.74v-44.57q0-6.74,7.75-6.74h23.12q7.81,0,7.82,6.74Zm-9.21-.24v-44.09H463.69v44.09Z"/><path d="M544.84,1453.58h-9.07v-12l-16.95.47v50.48h-9.21v-58h9.21v1.61q4.56-.6,9.2-1.25a73.77,73.77,0,0,1,9.21-.72q7.6,0,7.61,6.5Z"/><path d="M625.64,1492.54h-9.21v-51l-20.07.47v50.48h-9.13v-51l-20.07.47v50.48H558v-58h9.21v1.61q5.4-.6,10.79-1.25a103.57,103.57,0,0,1,10.87-.72q4.21,0,6.23,2.21,5.81-.66,11.56-1.38,7.53-.82,11.41-.83,7.62,0,7.62,6.5Z"/><path d="M680.07,1492.54H671v-1.61q-5.46.66-10.93,1.25a108.22,108.22,0,0,1-10.87.72q-7.55,0-7.54-6.45v-21.18q0-6.68,7.82-6.68h21.66v-17.48H651.35v9.9h-8.93v-9.78q0-6.74,7.75-6.74h22.15q7.74,0,7.75,6.74Zm-8.93-7.22V1464.8H650.59v20.88Z"/><path d="M734,1485.8q0,6.73-7.75,6.74H704.33q-7.76,0-7.76-6.74v-44.57q0-6.74,7.76-6.74H726.2q7.74,0,7.75,6.74v11.57h-9.07v-11.33h-19.1v44.09h19.1v-13H734Z"/><path d="M760.07,1421.78h-9.34v-10h9.34Zm-.14,70.76h-9.06v-58h9.06Z"/><path d="M815.68,1485.8q0,6.73-7.82,6.74H784.74q-7.75,0-7.75-6.74v-44.57q0-6.74,7.75-6.74h23.12q7.82,0,7.82,6.74Zm-9.21-.24v-44.09H786.2v44.09Zm4.92-70-17,13.78H788V1429l10.38-13.66h13Z"/><path d="M870.8,1492.54h-9.2v-51l-20.28.47v50.48h-9.21v-58h9.21v1.61q5.4-.6,10.86-1.25a105.4,105.4,0,0,1,10.94-.72q7.68,0,7.68,6.5Z"/><path d="M953.92,1485.8q0,6.73-7.75,6.74H924q-7.75,0-7.75-6.74v-44.57q0-6.74,7.75-6.74h22.15q7.74,0,7.75,6.74v20.88l-3.12,2.81H925.2v21H945V1475.3h8.93ZM945,1458.59v-17.48H925.2v17.48Z"/><path d="M1006.83,1485.8q0,6.73-7.82,6.74H977.9q-7.83,0-7.82-6.74v-13.19h9.06v13.07h18.62V1474.1l-24.08-17a7.25,7.25,0,0,1-3.47-6.21v-9.66q0-6.74,7.83-6.74h20.83q7.82,0,7.82,6.74v11.57h-8.93v-11.45H979.14v10.14l24.3,17a7.31,7.31,0,0,1,3.39,6.32Z"/><path d="M1090.7,1480.07a11.33,11.33,0,0,1-4.08,8.92,15,15,0,0,1-10.24,3.55h-15.16v22H1052v-80.06h9.2v1.61l10.94-1.19a102.93,102.93,0,0,1,10.86-.78q7.68,0,7.68,6.5Zm-9.2-1.19v-37.29l-20.28.47v43.5H1074Q1081.49,1485.56,1081.5,1478.88Z"/><path d="M1144.93,1492.54h-9.07v-1.61q-5.46.66-10.93,1.25a108.4,108.4,0,0,1-10.87.72q-7.55,0-7.54-6.45v-21.18q0-6.68,7.82-6.68H1136v-17.48h-19.79v9.9h-8.93v-9.78q0-6.74,7.75-6.74h22.15q7.74,0,7.75,6.74Zm-8.93-7.22V1464.8h-20.55v20.88Z"/><path d="M1196.66,1453.58h-9.07v-12l-16.95.47v50.48h-9.21v-58h9.21v1.61q4.56-.6,9.2-1.25a73.77,73.77,0,0,1,9.21-.72q7.6,0,7.61,6.5Z"/><path d="M1247.84,1492.54h-9.07v-1.61q-5.46.66-10.93,1.25a108.4,108.4,0,0,1-10.87.72q-7.54,0-7.54-6.45v-21.18q0-6.68,7.82-6.68h21.66v-17.48h-19.79v9.9h-8.93v-9.78q0-6.74,7.75-6.74h22.15q7.74,0,7.75,6.74Zm-8.93-7.22V1464.8h-20.56v20.88Z"/><path d="M1317.74,1492.54h-13.08q-7.76,0-7.76-6.74v-44.33h-8.09v-7h8.09v-18.08H1306v18.08h11.77v7H1306v44.09h11.77Z"/><path d="M1369.61,1485.8q0,6.73-7.82,6.74h-23.12q-7.76,0-7.75-6.74v-44.57q0-6.74,7.75-6.74h23.12q7.82,0,7.82,6.74Zm-9.21-.24v-44.09h-20.28v44.09Z"/><path d="M1424.31,1492.54h-9.13v-1.61q-14.81,2-16.4,2a13.17,13.17,0,0,1-9.48-3.43,11.34,11.34,0,0,1-3.6-8.56v-34a11.32,11.32,0,0,1,4.08-8.92,15,15,0,0,1,10.24-3.55h15.16v-35.32h9.13Zm-9.13-7.22v-43.85h-12.74q-7.61,0-7.61,6.74v31q0,6.69,7.61,6.69Q1404.24,1485.92,1415.18,1485.32Z"/><path d="M1479.58,1485.8q0,6.73-7.83,6.74h-23.11q-7.76,0-7.75-6.74v-44.57q0-6.74,7.75-6.74h23.11q7.83,0,7.83,6.74Zm-9.21-.24v-44.09h-20.28v44.09Z"/><path d="M1532.28,1485.8q0,6.73-7.82,6.74h-21.11q-7.83,0-7.82-6.74v-13.19h9.06v13.07h18.62V1474.1l-24.08-17a7.24,7.24,0,0,1-3.46-6.21v-9.66q0-6.74,7.82-6.74h20.83q7.82,0,7.82,6.74v11.57h-8.93v-11.45h-18.62v10.14l24.3,17a7.28,7.28,0,0,1,3.39,6.32Z"/></svg>