<svg id="Capa_1" data-name="Capa 1" xmlns="http://www.w3.org/2000/svg" viewBox="0 0 1576 1418.55"><title>LOGO DEFINITIVO WILLAY</title><rect x="284.28" y="155.97" width="1031.45" height="440.33" rx="220.17" ry="220.17" style="fill:#ed0000;stroke:#ed0000;stroke-miterlimit:10;stroke-width:32.7790214610628px"/><circle cx="1095.56" cy="376.14" r="220.17" style="fill:#fff;stroke:#ed0000;stroke-miterlimit:10;stroke-width:32.7790214610628px"/><circle cx="1095.56" cy="376.14" r="220.17" style="fill:none;stroke:#fff;stroke-miterlimit:10;stroke-width:6.7767657783179px"/><path d="M1031.34,289.46l18.89,113.33,26.44-102h41.55l22.67,102,22.66-109.55,58.55-3.78-47.21,207.77h-56.67l-18.88-75.55-22.67,75.55h-60.44L969,293.24Z" style="fill:#ed0000"/><path d="M234.38,806.94l32.48,201.43,47.92-180.88,73.79.38,39.3,181.35,41.28-194.34,104-6.16-85.8,368.53-100.63-.53L353.9,1042.37l-41,134-107.34-.57L123.65,813.06Z" style="fill:#ed0000"/><path d="M630.15,815.73c28.17.15,46.86,19,46.71,47.21s-19,46.86-47.21,46.71-46.86-19-46.71-47.21S602,815.58,630.15,815.73Zm-48.87,362,8-234.77,87.24-6.25,5.44,241.55Z" style="fill:#ed0000"/><path d="M702,1178.38l8.62-362.23,87.24-6.25,4.77,369Z" style="fill:#ed0000"/><path d="M822.78,1179l8.62-362.23,87.25-6.25,4.76,369Z" style="fill:#ed0000"/><path d="M1120.76,1157.78c-15.51,14.68-37.69,22.61-61.17,22.49-67.08-.36-120.5-47.6-120.08-128.1.35-67.09,47.52-107.1,111.26-106.76,43.6.23,66.26,29.2,74.86,52.05l2.29-51.64,87.24-6.25,5.44,241.54-100.63-.53Zm2.39-71.77,1.62-51.65a61.65,61.65,0,0,0-40.85-15c-20.12-.1-43.66,9.84-43.82,40-.17,33.55,23.24,47.09,43.36,47.19C1098.22,1106.67,1113.7,1096.69,1123.15,1086Z" style="fill:#ed0000"/><path d="M1360.77,1316c-47-.25-67-13.77-67-13.77l7.2-93.89a104.51,104.51,0,0,0,36.19,6.9c30.86.16,36.35-24,37.21-59.51-10.82,17.38-28.35,32.72-53.17,32.59-60.38-.32-74.92-40.65-76.58-107.74l-2.69-127.48L1342.59,947s-3.85,93.9-4,127.44c-.16,30.19,9.85,40.31,23.27,40.38,4.7,0,10.08-2.63,14.12-6l6.89-161.64,87.25-6.25,5.58,214.71C1481.14,1263,1454.69,1316.52,1360.77,1316Z" style="fill:#ed0000"/></svg>